<?xml version='1.0' encoding='iso-8859-1'?>
<!DOCTYPE svg PUBLIC '-//W3C//DTD SVG 1.1//EN' 'http://www.w3.org/Graphics/SVG/1.1/DTD/svg11.dtd'>
<svg version="1.1" xmlns="http://www.w3.org/2000/svg" viewBox="0 0 460 460" xmlns:xlink="http://www.w3.org/1999/xlink" enable-background="new 0 0 460 460">
  <g>
    <path d="m226.157,301.977c16.601,0 30.107,13.473 30.107,30.074v10.46c0,4.169 3.38,7.549 7.549,7.549h41.818c0.008,0 0.016,0.002 0.025,0.002 0.008,0 0.017-0.002 0.025-0.002h31.355c1.929,0 3.783-0.738 5.185-2.062 21.867-20.665 30.954-55.072 33.097-64.442 26.591-1.015 47.139-5.851 61.161-14.428 15.388-9.409 23.521-23.704 23.521-41.337 0-48.782-44.65-91.573-95.55-91.573-21.838,0-40.898,5.053-56.214,14.714-33.401-26.057-74.006-40.995-116.962-40.995-86.166,0-162.893,60.084-190.927,149.512-0.719,2.293-0.303,4.791 1.12,6.727s3.681,3.08 6.084,3.08h18.597c-0.001,0.344 0.012,0.691 0.06,1.042 6.13,45.491 42.919,76.7 44.482,78.006 1.358,1.135 3.071,1.757 4.841,1.757h73.222c4.169,0 7.549-3.38 7.549-7.549v-10.46c0-15.963 12.489-29.09 28.208-30.074h41.647zm208.57-110.214h-143.158c10.154-21.789 31.28-38.911 67.848-40.347v22.325c0,2.779 2.253,5.033 5.033,5.033s5.033-2.253 5.033-5.033v-22.242c27.377,1.787 52.027,17.956 65.244,40.264zm-274.659,62.394l-43.773-43.774 48.071-35.742h53.758c0.018,0 0.036-0.002 0.055-0.003l48.136,35.791-42.966,43.727h-63.281zm108.872-24.858c0.235,9.462 2.654,17.775 7.268,24.859h-31.694l24.426-24.859zm23.136-65.002c-8.42,9.101-14.708,20.233-18.594,32.649l-42.75-31.786 26.715-26.715c13.58,5.699 26.471,13.11 38.422,22.044-1.301,1.229-2.573,2.49-3.793,3.808zm-50.28-31.553l-26.8,26.8h-50.003l-26.189-26.189c16.762-5.433 34.393-8.321 52.469-8.321 17.379,0.001 34.344,2.676 50.523,7.71zm-118.493,6.463l27.044,27.044-48.071,35.742h-56.453c20.448-28.024 47.204-49.686 77.48-62.786zm-87.51,77.884h65.856l37.067,37.067h-120.636c4.807-13.148 10.766-25.543 17.713-37.067zm105.409,114.961v2.911h-16.096c-1.055-6.908-0.938-13.079 3.283-18.228 3.086-3.765 9.215-7.931 21.212-10.881-5.28,7.397-8.399,16.437-8.399,26.198zm42.716-45.17c-34.639,0.74-56.66,7.418-67.206,20.281-7.494,9.142-7.882,19.486-6.868,27.8h-31.421c-7.218-6.743-32.174-32.2-37.103-65.706h250.88c15.167,9.28 37.296,14.021 67.514,14.465-2.838,10.819-10.605,35.433-25.785,51.241h-17.799l7.148-21.444c1.318-3.955-0.819-8.23-4.775-9.549-3.956-1.318-8.23,0.82-9.549,4.775l-8.74,26.218h-28.851v-2.911c0-24.927-20.279-45.17-45.206-45.17h-42.239zm180.532-18.215c-80.452,0-80.452-30.767-80.452-40.876 0-6.988 0.757-14.066 2.382-20.951 0.154,0.009 0.306,0.023 0.463,0.023h154.702c2.165,6.71 3.357,13.738 3.357,20.928-5.68434e-14,27.123-27.069,40.876-80.452,40.876z"/>
    <path d="m369.593,255.652h-9.78c-2.779,0-5.033,2.253-5.033,5.033s2.253,5.033 5.033,5.033h9.78c2.779,0 5.033-2.253 5.033-5.033s-2.254-5.033-5.033-5.033z"/>
    <path d="m317.38,222.601c-1.993,0-3.936,0.805-5.345,2.214-1.399,1.399-2.204,3.352-2.204,5.335 0,1.993 0.805,3.936 2.204,5.345 1.409,1.399 3.362,2.204 5.345,2.204 1.983,0 3.935-0.806 5.335-2.204 1.409-1.409 2.215-3.362 2.215-5.345 0-1.983-0.806-3.936-2.215-5.335-1.4-1.409-3.352-2.214-5.335-2.214z"/>
    <path d="m411.524,222.601c-1.993,0-3.936,0.805-5.345,2.214-1.399,1.399-2.204,3.352-2.204,5.335 0,1.993 0.805,3.936 2.204,5.345 1.409,1.399 3.352,2.204 5.345,2.204 1.983,0 3.925-0.806 5.335-2.204 1.41-1.409 2.215-3.362 2.215-5.345 0-1.983-0.805-3.936-2.215-5.335-1.399-1.409-3.352-2.214-5.335-2.214z"/>
    <path d="m379.787,236.199c-1.057,0-2.094,0.433-2.839,1.178-0.755,0.755-1.178,1.792-1.178,2.849 0,1.057 0.423,2.104 1.178,2.849 0.745,0.755 1.782,1.178 2.839,1.178 1.067,0 2.104-0.433 2.848-1.178 0.755-0.745 1.188-1.782 1.188-2.849 0-1.057-0.433-2.094-1.188-2.849-0.744-0.745-1.782-1.178-2.848-1.178z"/>
    <path d="m349.106,236.199c-1.057,0-2.093,0.433-2.848,1.178-0.745,0.755-1.178,1.792-1.178,2.849 0,1.067 0.433,2.104 1.178,2.849 0.755,0.745 1.791,1.178 2.848,1.178 1.057,0 2.094-0.433 2.849-1.178 0.745-0.745 1.178-1.791 1.178-2.849 0-1.057-0.432-2.094-1.178-2.849-0.755-0.745-1.791-1.178-2.849-1.178z"/>
  </g>
</svg>
